<?xml version="1.0" encoding="UTF-8"?>
<svg width="17px" height="10px" viewBox="0 0 17 10" version="1.1" xmlns="http://www.w3.org/2000/svg" xmlns:xlink="http://www.w3.org/1999/xlink">
    <title>Group Copy 2</title>
    <g id="accueil" stroke="none" stroke-width="1" fill="none" fill-rule="evenodd">
        <g id="Accueil-forum-v1" transform="translate(-526.000000, -616.000000)">
            <g id="Group-14" transform="translate(0.500000, 471.000000)">
                <g id="Group-Copy-2" transform="translate(525.500000, 145.000000)">
                    <path d="M8.25743913,10 C3.6154193,10 0.758791704,6.35294118 0.0446348061,5.29411765 C-0.0148782687,5.11764706 -0.0148782687,4.88235294 0.0446348061,4.70588235 C0.758791704,3.64705882 3.6154193,0 8.25743913,0 C12.899459,0 15.6965735,3.64705882 16.4107304,4.70588235 C16.5297565,4.88235294 16.5297565,5.11764706 16.4107304,5.29411765 C15.6965735,6.35294118 12.899459,10 8.25743913,10 Z M8.25743913,1.94117647 C9.92380523,1.94117647 11.292606,3.29411765 11.292606,5 C11.292606,6.64705882 9.92380523,8.05882353 8.25743913,8.05882353 C6.53155996,8.05882353 5.16275924,6.64705882 5.16275924,5 C5.16275924,3.29411765 6.53155996,1.94117647 8.25743913,1.94117647 Z" id="Shape" fill="#050505"></path>
                    <path d="M8.28,3 C9.48,3 10.5,4.00657895 10.5,5.25 C10.5,6.49342105 9.48,7.5 8.28,7.5 C7.02,7.5 6,6.49342105 6,5.25 C6,4.00657895 7.02,3 8.28,3 Z M8.28,4.00657895 C8.94,4.00657895 9.48,4.59868421 9.48,5.25 C9.48,5.90131579 8.94,6.49342105 8.28,6.49342105 C7.56,6.49342105 7.02,5.90131579 7.02,5.25 C7.02,4.59868421 7.56,4.00657895 8.28,4.00657895 Z" id="Shape" fill="#000000"></path>
                </g>
            </g>
        </g>
    </g>
</svg>