<?xml version="1.0" encoding="UTF-8"?>
<svg width="47px" height="41px" viewBox="0 0 47 41" version="1.1" xmlns="http://www.w3.org/2000/svg" xmlns:xlink="http://www.w3.org/1999/xlink">
    <title>icon-salon</title>
    <g id="Proposition" stroke="none" stroke-width="1" fill="none" fill-rule="evenodd">
        <g id="Accueil-forum-v1-Copy-5" transform="translate(-527.000000, -1297.000000)" fill="#136C53" fill-rule="nonzero">
            <g id="Group-3" transform="translate(0.611034, 1103.919744)">
                <g id="Group" transform="translate(526.388966, 193.080256)">
                    <path d="M16,23.5049979 C16,23.6957929 15.9943964,23.886588 15.9831893,24.077383 C15.9831893,24.0998295 15.9719821,24.2120619 15.9719821,24.2569548 L15.9719821,24.2625664 C15.9719821,24.3186826 15.9495678,24.3747988 15.9383607,24.430915 C15.8655142,24.8237283 15.7534428,25.2053184 15.6133534,25.5756852 C15.6021463,25.6037433 15.5461105,25.7271989 15.540507,25.7440338 C15.540507,25.7440338 15.540507,25.7384221 15.540507,25.7384221 C15.5180927,25.7889267 15.4956784,25.8394313 15.4676605,25.8843242 C15.4004176,26.0190031 15.3275712,26.1480703 15.2547247,26.2771375 C15.1650676,26.4342629 15.0698068,26.5801649 14.9633389,26.726067 C14.9241139,26.7821832 14.9016996,26.8382994 14.8456639,26.888804 C14.8456639,26.888804 14.8456639,26.888804 14.8456639,26.888804 C14.8456639,26.888804 14.8456639,26.8944156 14.8400603,26.8944156 C14.8008353,26.9393085 14.7335924,27.0178712 14.7167817,27.0347061 C14.5878995,27.1862198 14.4534137,27.3321218 14.3077208,27.4668007 C14.2124601,27.5621982 14.1115957,27.6519841 14.0107314,27.7361584 C13.9715064,27.7698281 13.9266778,27.814721 13.8818492,27.8483908 C13.8818492,27.8483908 13.8818492,27.8483908 13.8818492,27.8483908 C13.8706421,27.8540024 13.8538314,27.8652256 13.8482278,27.8708372 C13.6913277,27.9830696 13.5288241,28.095302 13.3607169,28.1963111 C13.2206275,28.2804854 13.0693311,28.3646597 12.9236382,28.4432223 C12.8507917,28.4825037 12.7723417,28.5161734 12.6994952,28.5554547 C12.6826845,28.5610663 12.6490631,28.5835128 12.6210452,28.6003477 C12.6322523,28.594736 12.6434595,28.5835128 12.6546666,28.5722896 C12.3688844,28.757473 11.9205985,28.8192008 11.5955912,28.8921518 C11.4723126,28.9202099 11.3434304,28.9538796 11.2145482,28.9538796 L11.2089447,28.9538796 C11.1697197,28.9538796 11.1304946,28.9651029 11.1136839,28.9707145 C11.0240267,28.9763261 10.9399731,28.993161 10.850316,28.993161 C10.4972908,29.0099958 10.1442657,28.993161 9.79124057,28.9707145 C9.785637,28.9707145 9.78003343,28.9707145 9.77442985,28.9707145 C9.7015834,28.9594913 9.62873694,28.948268 9.56149406,28.9370448 C9.43821544,28.9145983 9.31493683,28.8865402 9.19165821,28.8584821 C9.0459653,28.8192008 8.90027239,28.7799195 8.76018305,28.7350265 C8.63690444,28.6957452 8.36232934,28.6508522 8.27267216,28.5554547 C8.31750075,28.5722896 8.36232934,28.594736 8.40155435,28.6115709 C8.35672576,28.5891244 8.31189717,28.5722896 8.26706859,28.5498431 C8.1998257,28.5161734 8.13258282,28.4881153 8.06533994,28.4544456 C7.93645775,28.3871062 7.80197199,28.3141551 7.67869337,28.2412041 C7.54981118,28.168253 7.42653256,28.0840787 7.30885752,28.0055161 C7.2696325,27.977458 7.23040749,27.9493999 7.19118248,27.9213418 C7.16876818,27.9045069 7.15195746,27.8932837 7.13514674,27.8764489 C7.13514674,27.8764489 7.13514674,27.8764489 7.13514674,27.8764489 C7.13514674,27.8764489 7.13514674,27.8764489 7.12954317,27.8764489 C6.90540023,27.6856538 6.68686086,27.4948588 6.48513222,27.2816173 C6.38426789,27.1749965 6.28900714,27.0627641 6.1937464,26.9505318 C6.17693567,26.9336969 6.16572853,26.9112504 6.14891781,26.8944156 C6.13210709,26.8719691 6.11529637,26.8551343 6.10969279,26.843911 C6.12089994,26.8607459 6.14891781,26.8944156 6.18814282,26.9449202 C6.13210709,26.9224737 6.05365706,26.7597367 6.01443204,26.7092322 C5.86313556,26.4847674 5.72304622,26.2546911 5.59416403,26.0133915 C5.56054259,25.9516637 5.38122824,25.6766943 5.40364253,25.6149665 C5.42045325,25.6598595 5.44286755,25.7047524 5.45967827,25.7440338 C5.44286755,25.6991408 5.42045325,25.6542479 5.40364253,25.6037433 C5.37002109,25.5083458 5.33639965,25.4185599 5.30277821,25.3231624 C5.20751746,25.0369698 5.12906743,24.7451656 5.0730317,24.4477498 C5.06182455,24.3972453 5.05622098,24.3467407 5.04501383,24.2962361 C5.03941026,24.2737897 5.03941026,24.2513432 5.03380668,24.2232851 C5.03380668,24.24012 5.03941026,24.2625664 5.04501383,24.2906245 C4.97777095,24.2345083 5.00578882,23.8360834 5.00578882,23.7462975 C4.99458167,23.415212 5.01139239,23.0953497 5.04501383,22.7642642 C5.04501383,22.7642642 5.04501383,22.7586526 5.04501383,22.7586526 C5.04501383,22.753041 5.04501383,22.7474294 5.0506174,22.7418178 C5.06742812,22.6632551 5.07863527,22.5846925 5.09544599,22.5005182 C5.12906743,22.3433928 5.16268887,22.1862675 5.20751746,22.0291422 C5.25234605,21.8776285 5.29717464,21.7261148 5.35321037,21.5746011 C5.38122824,21.50165 5.40924611,21.428699 5.43726397,21.3501363 C5.43726397,21.3501363 5.43726397,21.3501363 5.43726397,21.3501363 C5.43726397,21.3501363 5.43726397,21.3501363 5.43726397,21.3501363 C5.44286755,21.3445247 5.44286755,21.3389131 5.44847112,21.3333015 C5.59976761,21.0246625 5.75106409,20.7272467 5.94158559,20.4410541 C6.0032249,20.3512682 6.05926063,20.2502591 6.12650351,20.1604732 C6.12089994,20.1660848 6.13210709,20.1548616 6.18253925,20.104357 C6.23297141,20.0482408 6.28340357,19.986513 6.33383573,19.9247852 C6.55797867,19.6722624 6.79893233,19.4365744 7.05669671,19.2177213 C7.07350743,19.206498 7.09592173,19.1784399 7.12393959,19.1559934 C7.16876818,19.1223237 7.21920034,19.088654 7.26402893,19.0605959 C7.39291112,18.97081 7.52179331,18.8866357 7.65627908,18.8024615 C7.70110766,18.7744034 7.75153982,18.7463453 7.80197199,18.7182872 C7.86921487,18.6790059 7.93085418,18.6453361 7.99809706,18.6116664 C8.06533994,18.5723851 8.1381864,18.5387154 8.21103285,18.5050457 C8.23905072,18.4938224 8.31189717,18.4489295 8.36232934,18.4208714 C8.35112219,18.426483 8.33431147,18.4377063 8.31750075,18.4489295 C8.63130086,18.2693577 9.05717245,18.190795 9.39899043,18.1122324 C9.49985475,18.0897859 9.5951155,18.072951 9.69597983,18.0561162 C9.71839412,18.0505046 9.73520484,18.0448929 9.75201556,18.0448929 C9.76322271,18.0448929 9.78003343,18.0448929 9.80244772,18.0392813 C10.0265907,18.0168349 10.24513,18 10.469273,18 C10.6149659,18 10.7662624,18 10.9119553,18.0112232 C10.9904053,18.0168349 11.0688553,18.0224465 11.1473054,18.0280581 C11.1753232,18.0280581 11.1977375,18.0336697 11.2257554,18.0336697 C11.349034,18.0505046 11.3266197,18.0448929 11.1585125,18.0224465 C11.2761875,17.9943884 11.4891233,18.0785627 11.6067984,18.1010091 C11.7805092,18.1402905 11.9486164,18.1795718 12.1167236,18.2300764 C12.2848308,18.2805809 12.4473344,18.3366971 12.609838,18.3984249 C12.6154416,18.3984249 12.6210452,18.4040365 12.6266488,18.4040365 C12.6266488,18.4040365 12.6266488,18.4040365 12.6322523,18.4040365 C12.6434595,18.4096482 12.6602702,18.4152598 12.6826845,18.426483 C12.7275131,18.4489295 12.7723417,18.4657643 12.8171703,18.4882108 C13.1253668,18.6397245 13.4223562,18.8080731 13.7081384,19.0044797 C13.7641742,19.0437611 13.8202099,19.088654 13.8762456,19.1279354 C13.8986599,19.1447702 13.9210742,19.1672167 13.9490921,19.1840515 C14.0779743,19.2906723 14.2068565,19.4085163 14.3301351,19.5263603 C14.436603,19.6273694 14.5374673,19.7339902 14.6327281,19.8406109 C14.6831602,19.8967271 14.7279888,19.9528433 14.778421,20.0033479 C14.8120424,20.0426292 14.8400603,20.0762989 14.8736817,20.1155802 C14.9465282,20.2109778 14.935321,20.1941429 14.8344567,20.0594641 C14.935321,20.104357 15.0698068,20.3849379 15.1314461,20.4803355 C15.2267069,20.6262375 15.3107605,20.7721396 15.3948141,20.9236533 C15.4284355,20.9909927 15.6525784,21.3276899 15.618957,21.3894177 C15.618957,21.3838061 15.5180927,21.1256716 15.5909391,21.3276899 C15.6245606,21.4230874 15.6637856,21.5128733 15.697407,21.6082708 C15.8150821,21.9393563 15.8991357,22.281665 15.960775,22.6295854 C15.9719821,22.6857016 16.0112071,22.797934 15.9943964,22.8540501 C15.9719821,22.6857016 15.9663786,22.6576435 15.9831893,22.7867107 C15.9887929,22.8372153 15.9943964,22.8877199 16,22.943836 C15.9887929,23.1402427 16,23.3254261 16,23.5049979 Z" id="Path"></path>
                    <path d="M46.971155,6.62810736 C46.971155,6.54775897 47,6.45593224 47,6.36410551 C46.982693,4.96374789 46.2731067,3.69539119 45.0962317,2.92634233 C44.4212594,2.48442619 43.6078311,2.29503356 42.8059408,2.29503356 C41.9521296,2.29503356 41.1040874,2.30077274 40.2502762,2.30077274 L29.9699276,2.30077274 C29.6180189,1.32511374 28.8565116,0.579021559 27.8469375,0.2002363 C26.5489137,-0.287593199 24.9509022,0.142844595 24.062477,1.19885198 C23.7855652,1.53172388 23.5663434,1.89903079 23.4278876,2.30077274 L12.4148766,2.30077274 C11.8610531,2.30077274 11.3072297,2.28929439 10.7534062,2.29503356 C8.80348595,2.31225108 7.00932859,3.7126087 6.70357187,5.6639267 C6.59396097,6.35262717 6.64011293,7.05854515 6.64011293,7.75298479 L6.64011293,16.0633038 C6.69780287,16.0173904 6.71510986,16.0231296 6.75549282,16.0059121 C6.76126181,16.0059121 6.76703081,16.0001729 6.7727998,16.0001729 C6.80741377,15.9829554 6.84202774,15.9599987 6.87664171,15.9485204 C6.8881797,15.9427812 6.89971769,15.9313029 6.91702467,15.9255637 C6.96317663,15.902607 7.01509758,15.8853895 7.06124954,15.8624328 C7.07855652,15.8566937 7.09009451,15.8509545 7.1074015,15.8452153 C7.12470848,15.8394761 7.14778446,15.8279978 7.17086044,15.8222586 C7.18239843,15.8165195 7.19393642,15.8107803 7.2112434,15.8050411 C7.22278139,15.799302 7.23431938,15.7935628 7.25162637,15.7878236 C7.28047134,15.7763453 7.31508531,15.7648669 7.34393028,15.7533886 C7.34969928,15.7533886 7.35546827,15.7476494 7.36123727,15.7476494 C7.37854425,15.7419102 7.39585123,15.7361711 7.40738922,15.7304319 C7.42469621,15.7246927 7.44200319,15.7074752 7.45931018,15.7017361 C7.47084816,15.6959969 7.48238615,15.6845185 7.49392414,15.6787794 C7.49392414,15.6787794 7.49969314,15.6730402 7.49969314,15.6730402 C7.49969314,15.6730402 7.49969314,15.6730402 7.50546213,15.6730402 C7.50546213,15.6730402 7.50546213,15.6730402 7.50546213,15.6730402 L7.50546213,15.6730402 C7.50546213,15.6730402 7.50546213,15.6845185 7.50546213,15.6845185 C7.50546213,15.6845185 7.50546213,15.6902577 7.50546213,15.6902577 C7.51123113,15.6845185 7.51700012,15.6787794 7.52276912,15.6730402 C7.56315208,15.6558227 7.60930404,15.6730402 7.649687,15.6156485 L7.649687,15.6156485 C7.655456,15.6156485 7.66122499,15.6271268 7.66699399,15.6213877 C7.70737695,15.6041702 7.75352891,15.598431 7.79391187,15.5869526 C7.9785197,15.5295609 8.16889653,15.4836476 8.35927335,15.4434734 C8.55541917,15.39756 8.75156499,15.3688642 8.94771081,15.3401683 C9.05155272,15.3229508 9.15539462,15.3114725 9.25346753,15.3057333 C9.28231251,15.2999941 9.31692648,15.2999941 9.34577145,15.2942549 C9.35154044,15.2942549 9.36307843,15.2942549 9.36884743,15.2942549 C9.36884743,15.2942549 9.37461642,15.2942549 9.38038542,15.2942549 C9.4034614,15.2942549 9.42076838,15.2885158 9.44384436,15.2885158 C9.46115134,15.2885158 9.47845833,15.2885158 9.50153431,15.2827766 C9.5073033,15.2827766 9.5130723,15.2827766 9.52461029,15.2827766 C9.55922425,15.2827766 9.58806923,15.2770374 9.6226832,15.2770374 C9.63999018,15.2770374 9.65729716,15.2770374 9.67460415,15.2770374 C9.71498711,15.2770374 9.75537007,15.2712983 9.79575304,15.2712983 C9.81306002,15.2712983 9.83036701,15.2712983 9.84767399,15.2712983 C9.86498097,15.2712983 9.88805695,15.2712983 9.90536394,15.2712983 C9.92843992,15.2712983 9.9515159,15.2770374 9.96882288,15.2770374 C9.99189886,15.2770374 10.0092058,15.2770374 10.0322818,15.2770374 C10.0495888,15.2770374 10.0668958,15.2770374 10.0842028,15.2770374 L10.2688106,15.2770374 C10.3149626,15.2770374 10.3553455,15.2770374 10.4014975,15.2770374 C10.4014975,15.2770374 10.4072665,15.2770374 10.4072665,15.2770374 C10.4072665,15.2770374 10.4130355,15.2770374 10.4188045,15.2770374 C10.4188045,15.2770374 10.4245735,15.2770374 10.4303425,15.2770374 L10.4361115,15.2770374 C10.4418804,15.2770374 10.4418804,15.2770374 10.4476494,15.2770374 L10.4764944,15.2770374 C10.4764944,15.2770374 10.4764944,15.2770374 10.4764944,15.2770374 L10.5168774,15.2770374 C10.5341844,15.2770374 10.5457224,15.2770374 10.5630293,15.2770374 C10.5630293,15.2770374 10.5687983,15.2770374 10.5687983,15.2770374 C10.5745673,15.2770374 10.5803363,15.2770374 10.5861053,15.2770374 C10.5861053,15.2770374 10.5918743,15.2770374 10.5918743,15.2770374 L10.5976433,15.2770374 C10.6149503,15.2770374 10.6264883,15.2827766 10.6437953,15.2827766 C10.6784092,15.2827766 10.7187922,15.2885158 10.7534062,15.2942549 C10.7937891,15.2942549 10.8341721,15.2999941 10.8745551,15.3057333 C10.909169,15.3114725 10.943783,15.3114725 10.978397,15.3172116 C10.984166,15.3172116 10.9899349,15.3172116 10.9957039,15.3172116 C11.0187799,15.3172116 11.0418559,15.3229508 11.0591629,15.3229508 C11.1168528,15.32869 11.1803118,15.32869 11.2380017,15.3344291 C11.2553087,15.3344291 11.2726157,15.32869 11.2899227,15.32869 L11.2899227,15.32869 C11.3014607,15.32869 11.3129986,15.3459075 11.3245366,15.3459075 C11.3360746,15.3459075 11.3418436,15.3516466 11.3533816,15.3573858 C11.3533816,15.3573858 11.3533816,15.3573858 11.3533816,15.3573858 C11.3591506,15.363125 11.3649196,15.363125 11.3706886,15.3688642 C11.3706886,15.3688642 11.3764576,15.3688642 11.3764576,15.3688642 C11.3822266,15.3746033 11.3879956,15.3860817 11.3937646,15.3860817 L11.3995336,15.3860817 C11.4226095,15.3860817 11.4514545,15.3860817 11.4745305,15.3918208 C11.4745305,15.3918208 11.4802995,15.3860817 11.4802995,15.3860817 C11.5552964,15.39756 11.6360624,15.4147775 11.7110593,15.4262559 C11.7802872,15.4434734 11.8552842,15.4549517 11.9245121,15.4721692 C11.99374,15.4893867 12.062968,15.5066043 12.1379649,15.5238218 C12.1725789,15.5353001 12.2071928,15.5410393 12.2418068,15.5525176 C12.2475758,15.5525176 12.2591138,15.5582568 12.2648828,15.5582568 C12.2706518,15.5582568 12.2821898,15.563996 12.2879588,15.563996 C12.2994967,15.5697351 12.3110347,15.5697351 12.3225727,15.5754743 C12.3687247,15.5869526 12.4091076,15.6041702 12.4552596,15.6156485 C12.4783356,15.6213877 12.5014116,15.632866 12.5302565,15.6386052 C12.5417945,15.6386052 12.5475635,15.6443443 12.5591015,15.6500835 C12.5879465,15.6615619 12.6225605,15.667301 12.6514054,15.6787794 C12.6571744,15.6787794 12.6571744,15.6787794 12.6629434,15.6845185 C12.6975574,15.6959969 12.7321714,15.7074752 12.7667853,15.7189536 C12.7783233,15.7246927 12.7840923,15.7246927 12.7956303,15.7304319 C12.8013993,15.7304319 12.8129373,15.7361711 12.8187063,15.7361711 C12.8244753,15.7361711 12.8360133,15.7419102 12.8417823,15.7419102 C12.8533202,15.7476494 12.8648582,15.7476494 12.8706272,15.7533886 C12.9052412,15.7648669 12.9398552,15.7763453 12.9744691,15.7935628 C12.9917761,15.799302 13.0033141,15.8050411 13.0206211,15.8107803 C13.066773,15.8279978 13.112925,15.8452153 13.159077,15.8624328 C13.1994599,15.8796503 13.2456119,15.8968679 13.2859948,15.9140854 C13.3033018,15.9198245 13.3206088,15.9313029 13.3436848,15.937042 C13.3956057,15.9599987 13.4417577,15.9772162 13.4936787,16.0001729 C16.2916411,17.2455729 18.0627225,20.1495933 18.1204124,23.1741362 L18.1204124,23.202832 C18.0627225,23.7021399 18.0511845,24.2014477 17.9588806,24.6950164 C17.9531116,24.7351906 17.9415736,24.7753648 17.9358046,24.8155389 C17.9300356,24.8327565 17.9300356,24.8557131 17.9242666,24.8729307 C17.9242666,24.884409 17.9184976,24.8901482 17.9184976,24.9016265 C17.9127286,24.9303224 17.9069596,24.9647574 17.9011906,24.9934532 C17.9011906,24.9991924 17.8954216,25.0106707 17.8954216,25.0164099 C17.8954216,25.0164099 17.8954216,25.0221491 17.8954216,25.0221491 C17.8954216,25.0221491 17.8954216,25.0221491 17.8954216,25.0278883 C17.8954216,25.0336274 17.8954216,25.0393666 17.8896526,25.0451058 C17.8896526,25.0508449 17.8838836,25.0565841 17.8838836,25.0623233 C17.8838836,25.0623233 17.8838836,25.0623233 17.8838836,25.0680625 C17.8838836,25.0738016 17.8838836,25.0738016 17.8838836,25.0795408 C17.8838836,25.08528 17.8838836,25.0967583 17.8838836,25.0967583 L17.8838836,25.0967583 C17.8838836,25.0967583 17.8781146,25.1082366 17.8781146,25.119715 C17.8723456,25.1426717 17.8665767,25.1656284 17.8608077,25.188585 C17.8608077,25.188585 17.8608077,25.188585 17.8608077,25.188585 C17.8492697,25.2287592 17.8377317,25.2689334 17.8261937,25.3091076 C17.8146557,25.3492818 17.8031177,25.3837168 17.7915797,25.4181519 C17.7858107,25.4353694 17.7800417,25.4583261 17.7742727,25.4755436 C17.7281208,25.6362403 17.6704308,25.7969371 17.6127409,25.9576339 C17.5954339,26.0035473 17.5781269,26.0437215 17.5608199,26.0896348 C17.537744,26.1412874 17.520437,26.1929399 17.497361,26.2445924 C17.485823,26.2675491 17.474285,26.296245 17.468516,26.3192016 C17.462747,26.3421583 17.44544,26.3708542 17.433902,26.3938109 C17.4108261,26.4454634 17.3877501,26.4913768 17.3646741,26.5430293 C17.3415981,26.5889427 17.3185222,26.6405952 17.2954462,26.6865086 C17.2954462,26.6922477 17.2896772,26.6922477 17.2896772,26.6979869 C17.1685283,26.9390321 17.0358414,27.1685989 16.8973855,27.3981657 C16.7358537,27.6506892 16.5627838,27.8974736 16.372407,28.1327795 C16.372407,28.1385187 16.366638,28.1385187 16.360869,28.1442579 C16.3262551,28.1901713 16.2858721,28.2303454 16.2512581,28.2762588 C16.1762612,28.3680855 16.0954953,28.4886081 16.0147293,28.5459998 L22.3375476,28.5459998 L22.3375476,32.9077695 L19.7530379,32.9077695 C19.1415245,32.9077695 18.547318,33.2693372 18.2415613,33.7916017 C17.0358414,32.2248082 15.4435989,31.0482782 13.5686756,30.3595777 C13.5629066,30.3595777 13.5513686,30.3538386 13.5455996,30.3538386 C12.8706272,30.1070542 12.1783479,29.9406183 11.4802995,29.8487916 C10.6034123,29.7340081 9.71498711,29.7397473 8.83809991,29.8545307 C8.21504848,29.9406183 7.59776605,30.0783584 6.9977906,30.2734902 C6.9920216,30.2734902 6.98625261,30.2792293 6.98048361,30.2792293 C6.94586965,30.2964469 6.90548668,30.3251427 6.87087271,30.3366211 C6.83048975,30.3480994 6.79587578,30.3251427 6.76126181,30.3825344 L6.76126181,30.3825344 C6.76126181,30.3825344 6.75549282,30.3825344 6.75549282,30.3825344 C6.75549282,30.3825344 6.75549282,30.3825344 6.75549282,30.3825344 L6.75549282,30.3825344 C6.74972382,30.3825344 6.74972382,30.3825344 6.74972382,30.3825344 L6.74972382,30.3825344 C5.06517737,30.9564515 3.54216276,31.983763 2.38836381,33.3726423 C0.865349208,35.214916 0.0115379894,37.4704101 0,39.8636442 C0,40.4834746 0.530747514,41 1.15379894,41 L19.1472935,41 C19.1819075,41 19.2222904,41 19.2569044,40.9942608 C19.2626734,40.9942608 19.2626734,40.9942608 19.2684424,40.9942608 C19.2915184,40.9885217 19.3145943,40.9885217 19.3319013,40.9827825 C19.3492083,40.9770433 19.3722843,40.9770433 19.3895913,40.9713041 C19.4068982,40.965565 19.4184362,40.965565 19.4357432,40.9598258 C19.4357432,40.9598258 19.4357432,40.9598258 19.4357432,40.9598258 C19.4357432,40.9598258 19.4415122,40.9598258 19.4415122,40.9598258 C19.4415122,40.9598258 19.4415122,40.9598258 19.4472812,40.9598258 C19.4588192,40.9598258 19.4761262,40.9540866 19.4876642,40.9483475 C19.4934332,40.9483475 19.4934332,40.9483475 19.4934332,40.9483475 C19.5107401,40.9426083 19.5338161,40.9368691 19.5511231,40.9253908 C19.5626611,40.9196516 19.5799681,40.9139124 19.5915061,40.9081733 C19.6030441,40.9024341 19.6145821,40.8966949 19.62612,40.8966949 C19.654965,40.8852166 19.68381,40.8679991 19.706886,40.8565207 C19.718424,40.8507816 19.724193,40.8450424 19.7357309,40.8393032 C19.7472689,40.8335641 19.7530379,40.8278249 19.7645759,40.8220857 C19.7645759,40.8220857 19.7703449,40.8220857 19.7703449,40.8163465 C19.7703449,40.8163465 19.7761139,40.8163465 19.7761139,40.8106074 C19.7934209,40.799129 19.8107279,40.7876507 19.8280349,40.7761723 C19.8453418,40.764694 19.8568798,40.7532157 19.8684178,40.7417373 C19.8684178,40.7417373 19.8741868,40.7359982 19.8741868,40.7359982 C19.8857248,40.730259 19.8914938,40.7187806 19.9030318,40.7130415 C19.9145698,40.7073023 19.9203388,40.695824 19.9318768,40.6900848 C19.9376458,40.6843456 19.9434148,40.6786064 19.9491837,40.6786064 C19.9549527,40.6728673 19.9607217,40.6671281 19.9664907,40.6671281 C19.9780287,40.6556498 19.9837977,40.6499106 19.9953357,40.6384323 C19.9953357,40.6384323 19.9953357,40.6384323 19.9953357,40.6384323 C19.9953357,40.6384323 19.9895667,40.6326931 19.9895667,40.6326931 C20.1741745,40.4318221 20.2780164,40.1735594 20.2780164,39.8751226 L20.2780164,39.8693834 C20.2780164,39.8693834 20.2780164,39.8693834 20.2780164,39.8693834 C20.2780164,38.6813751 20.0703326,37.4818884 19.654965,36.3627502 C19.689579,36.3627502 19.7299619,36.3627502 19.7645759,36.3627502 L35.0524119,36.3627502 C35.9581441,36.3627502 36.8234933,35.5707446 36.7831103,34.640999 C36.7427274,33.7055142 36.021603,32.9192478 35.0524119,32.9192478 L31.2794894,32.9192478 L31.2794894,28.5574782 L41.1329324,28.5574782 C42.1021235,28.5574782 43.2443844,28.6665224 44.1731926,28.3451289 C45.8519701,27.7654726 46.965386,26.2273749 46.982693,24.448232 C46.988462,24.0866643 46.971155,23.7250965 46.971155,23.3635288 L46.971155,6.62810736 Z M25.4874187,3.57486861 C25.4874187,3.57486861 25.4931877,3.57486861 25.4874187,3.57486861 C25.4931877,3.56912943 25.4931877,3.56912943 25.4874187,3.57486861 C25.4931877,3.56912943 25.4931877,3.56912943 25.4874187,3.57486861 C25.4931877,3.56912943 25.4931877,3.56339026 25.4931877,3.56912943 C25.4931877,3.56912943 25.4931877,3.56339026 25.4931877,3.56339026 L25.4931877,3.56339026 C25.4931877,3.56339026 25.4931877,3.56912943 25.4931877,3.56912943 C25.4931877,3.56912943 25.4931877,3.57486861 25.4931877,3.57486861 C25.4931877,3.57486861 25.4931877,3.57486861 25.4931877,3.57486861 C25.4931877,3.57486861 25.4989567,3.57486861 25.4989567,3.58060778 C25.4989567,3.58060778 25.5047257,3.58634695 25.5047257,3.59208612 C25.5047257,3.58060778 25.5047257,3.56912943 25.5047257,3.55765109 C25.5047257,3.53469441 25.5047257,3.5174769 25.5047257,3.49452022 C25.5047257,3.49452022 25.5047257,3.49452022 25.5047257,3.48878105 C25.5047257,3.48878105 25.5047257,3.48878105 25.5047257,3.48304188 C25.5047257,3.48304188 25.5047257,3.48304188 25.5047257,3.48304188 L25.5047257,3.39121515 C25.5047257,3.38547598 25.5047257,3.38547598 25.5047257,3.37973681 C25.5047257,3.37973681 25.5047257,3.37973681 25.5047257,3.37399763 L25.5047257,3.36825846 C25.5047257,3.36251929 25.5047257,3.36251929 25.5047257,3.35678012 C25.5047257,3.35678012 25.5047257,3.35104095 25.5047257,3.35104095 C25.5047257,3.35104095 25.5047257,3.35104095 25.5047257,3.35104095 C25.5047257,3.35104095 25.5047257,3.35104095 25.5047257,3.35104095 C25.5047257,3.35104095 25.5047257,3.35104095 25.5047257,3.35104095 L25.5047257,3.30512759 C25.5047257,3.27069256 25.5104947,3.25347505 25.5104947,3.30512759 C25.5162637,3.27643173 25.5220327,3.25347505 25.5220327,3.25347505 C25.5393396,3.18460501 25.6085676,3.04686491 25.6085676,2.97225569 C25.6316435,2.9320815 25.6489505,2.89190731 25.6720265,2.85747228 C25.6951025,2.82303726 25.7239475,2.78860223 25.7412544,2.74842804 C25.7931754,2.69677551 25.8393274,2.6393838 25.8912483,2.58773126 C25.8912483,2.58199209 25.9200933,2.55903541 25.9489383,2.53033956 C25.9431693,2.53607873 25.9374003,2.53607873 25.9316313,2.5418179 C25.9374003,2.53607873 25.9489383,2.53033956 25.9547073,2.52460039 C25.9547073,2.52460039 25.9547073,2.52460039 25.9547073,2.52460039 C25.9777832,2.51312205 26.0989321,2.42703449 26.191236,2.37538195 C26.185467,2.37538195 26.179698,2.38112112 26.1739291,2.38112112 C26.1739291,2.38112112 26.1681601,2.38112112 26.1681601,2.38112112 C26.1623911,2.38112112 26.1566221,2.38112112 26.1566221,2.38686029 C26.1566221,2.38686029 26.1566221,2.38686029 26.1623911,2.38686029 C26.1739291,2.38112112 26.185467,2.38112112 26.202774,2.37538195 C26.202774,2.37538195 26.197005,2.38112112 26.197005,2.38112112 C26.208543,2.38112112 26.214312,2.37538195 26.231619,2.36964278 C26.28354,2.35242527 26.3296919,2.33520776 26.3816129,2.32372942 C26.4335338,2.31225108 26.4854548,2.30077274 26.5316067,2.28929439 C26.5546827,2.28355522 26.5719897,2.27781605 26.5835277,2.27781605 C26.6642936,2.27781605 26.7565975,2.28355522 26.7796735,2.28355522 C26.7854425,2.28355522 26.7969805,2.28355522 26.8085185,2.28355522 C26.7969805,2.27781605 26.8200565,2.27781605 26.9008224,2.29503356 C26.9123604,2.29503356 26.9181294,2.29503356 26.9296674,2.29503356 C26.9238984,2.29503356 26.9181294,2.29503356 26.9123604,2.29503356 C26.9469743,2.30077274 27.0450473,2.32372942 27.1258132,2.34094693 C27.1200442,2.34094693 27.1200442,2.33520776 27.1142752,2.33520776 C27.1142752,2.33520776 27.1200442,2.34094693 27.1315822,2.34094693 C27.1315822,2.34094693 27.1258132,2.34094693 27.1258132,2.34094693 C27.1315822,2.3466861 27.1488892,2.35242527 27.1719651,2.36964278 C27.2354241,2.40981698 27.304652,2.43851283 27.368111,2.48442619 C27.37388,2.49016536 27.4027249,2.50164371 27.4258009,2.51886122 C27.327728,2.41555615 27.4834909,2.5418179 27.4892599,2.56477458 C27.4834909,2.55903541 27.4546459,2.53607873 27.4258009,2.51886122 C27.4373389,2.53033956 27.4488769,2.5418179 27.4604149,2.55329624 C27.4719529,2.56477458 27.5584878,2.6393838 27.6219467,2.70251468 C27.6277157,2.71399302 27.6392537,2.73121053 27.6450227,2.74842804 C27.6738677,2.80581975 27.7142506,2.85173311 27.7430956,2.90912482 C27.7604026,2.94355984 27.7777096,2.97799486 27.7950166,3.01242989 C27.7430956,2.82877643 27.8815515,3.16164832 27.8123236,3.04686491 C27.8065546,3.03538657 27.8007856,3.02390823 27.7950166,3.01242989 C27.7950166,3.01242989 27.7950166,3.01816906 27.7950166,3.01816906 C27.8238615,3.12147413 27.8353995,3.24773588 27.8700135,3.35104095 C27.8700135,3.33956261 27.8700135,3.33382344 27.8700135,3.3223451 C27.8700135,3.18460501 27.8757825,3.25347505 27.8757825,3.3223451 C27.8757825,3.3223451 27.8757825,3.3223451 27.8757825,3.3223451 L27.8757825,3.34530178 C27.8757825,3.34530178 27.8757825,3.34530178 27.8757825,3.34530178 L27.8757825,3.34530178 C27.8757825,3.34530178 27.8757825,3.34530178 27.8757825,3.34530178 C27.8757825,3.35104095 27.8757825,3.35104095 27.8757825,3.35678012 L27.8757825,3.36825846 C27.8757825,3.36825846 27.8757825,3.35678012 27.8757825,3.35678012 L27.8757825,3.35678012 C27.8757825,3.35678012 27.8757825,3.37399763 27.8757825,3.37973681 C27.8757825,3.37973681 27.8757825,3.38547598 27.8757825,3.38547598 C27.8757825,3.38547598 27.8757825,3.39121515 27.8757825,3.39121515 C27.8757825,3.39121515 27.8757825,3.39121515 27.8757825,3.39121515 L27.8757825,3.39695432 C27.8757825,3.39695432 27.8757825,3.39695432 27.8757825,3.39695432 L27.8757825,3.40269349 C27.8757825,3.40269349 27.8757825,3.40269349 27.8757825,3.40269349 C27.8757825,3.41417183 27.8757825,3.42565017 27.8757825,3.43138934 C27.8757825,3.44286768 27.8757825,3.44860685 27.8757825,3.46008519 C27.8757825,3.47156353 27.8757825,3.47730271 27.8757825,3.48878105 C27.8757825,3.48878105 27.8757825,3.48304188 27.8757825,3.48304188 L27.8757825,3.52321607 C27.8757825,3.52321607 27.8757825,3.52895524 27.8757825,3.52895524 C27.8757825,3.52895524 27.8815515,3.52895524 27.8815515,3.52895524 C27.8815515,3.52895524 27.8815515,3.52895524 27.8815515,3.52895524 C27.8815515,3.52895524 27.8815515,3.52895524 27.8815515,3.53469441 C27.8815515,3.54617275 27.8815515,3.55765109 27.8815515,3.57486861 C27.8757825,3.60356446 27.8700135,3.64373865 27.8700135,3.65521699 L27.8700135,3.65521699 C27.8700135,3.65521699 27.8700135,3.65521699 27.8700135,3.65521699 C27.8700135,3.65521699 27.8700135,3.65521699 27.8700135,3.65521699 C27.8700135,3.66095616 27.8700135,3.65521699 27.8642445,3.63799948 C27.8642445,3.63226031 27.8642445,3.62078197 27.8642445,3.6150428 C27.8642445,3.6150428 27.8642445,3.6150428 27.8642445,3.6150428 C27.8642445,3.62078197 27.8642445,3.62652114 27.8584755,3.63799948 C27.8584755,3.63799948 27.8584755,3.63799948 27.8584755,3.63799948 C27.8584755,3.64947782 27.8527065,3.65521699 27.8527065,3.66669533 C27.8469375,3.68391285 27.8469375,3.69539119 27.8411685,3.7126087 C27.8353995,3.72982621 27.8296305,3.74704372 27.8296305,3.76426123 C27.8238615,3.78147875 27.8180925,3.79869626 27.8180925,3.8101746 C27.8123236,3.82165294 27.8123236,3.82739211 27.8123236,3.83887045 C27.8123236,3.83887045 27.8123236,3.83887045 27.8123236,3.83887045 C27.8123236,3.83887045 27.8123236,3.83887045 27.8123236,3.84460962 C27.8123236,3.84460962 27.8123236,3.84460962 27.8123236,3.84460962 C27.8123236,3.84460962 27.8123236,3.84460962 27.8123236,3.85034879 C27.8123236,3.85034879 27.8123236,3.85608796 27.8123236,3.86182713 C27.8469375,3.8101746 27.8238615,3.85034879 27.8007856,3.89626216 C27.7892476,3.93643635 27.7777096,3.95939303 27.7661716,3.95939303 C27.7661716,3.95939303 27.7661716,3.95939303 27.7661716,3.95939303 C27.7661716,3.95939303 27.7661716,3.95939303 27.7661716,3.95939303 C27.7604026,3.95939303 27.7661716,3.94217552 27.7719406,3.92495801 C27.7719406,3.92495801 27.7719406,3.93069718 27.7661716,3.93069718 C27.7604026,3.94217552 27.7546336,3.95365386 27.7488646,3.96513221 C27.7257886,4.01104557 27.6911747,4.07417645 27.6623297,4.12582898 C27.6680987,4.11435064 27.6738677,4.10861147 27.6854057,4.09713313 C27.6854057,4.09713313 27.6854057,4.1028723 27.6796367,4.11435064 C27.6796367,4.11435064 27.6796367,4.11435064 27.6854057,4.11435064 C27.6796367,4.12008981 27.6738677,4.12582898 27.6680987,4.13156815 C27.6680987,4.13156815 27.6623297,4.13730732 27.6623297,4.13730732 C27.6623297,4.13730732 27.6623297,4.13730732 27.6623297,4.13730732 C27.6334847,4.18322069 27.6161777,4.21191654 27.6046397,4.21191654 C27.5988707,4.22339488 27.5988707,4.22339488 27.6046397,4.21191654 C27.6046397,4.21191654 27.6046397,4.21191654 27.6046397,4.21191654 C27.6046397,4.20617737 27.6161777,4.19469903 27.6277157,4.18322069 C27.6277157,4.18322069 27.6277157,4.18322069 27.6277157,4.17748152 C27.6277157,4.17748152 27.6334847,4.17174235 27.6334847,4.17174235 C27.6219467,4.18322069 27.6104087,4.19469903 27.5988707,4.20617737 L27.5873328,4.21765571 C27.5815638,4.22339488 27.5757948,4.22913405 27.5757948,4.22913405 C27.5757948,4.22913405 27.5757948,4.23487322 27.5700258,4.23487322 L27.5642568,4.24061239 C27.5642568,4.24061239 27.5584878,4.24635156 27.5527188,4.25209073 C27.5469498,4.25782991 27.5469498,4.25782991 27.5411808,4.26356908 C27.5123358,4.29226493 27.4834909,4.32096078 27.4546459,4.34965663 C27.4777219,4.33243912 27.4834909,4.33243912 27.4488769,4.36113498 C27.6046397,4.26930825 27.298883,4.51035341 27.4084939,4.38983083 C27.37388,4.41852668 27.3854179,4.40704834 27.4142629,4.37835249 C27.37388,4.40130917 27.281576,4.46444005 27.2065791,4.51035341 C27.2123481,4.51035341 27.2181171,4.50461424 27.2238861,4.50461424 C27.2238861,4.50461424 27.2238861,4.49887507 27.2238861,4.49887507 L27.2296551,4.49887507 C27.2354241,4.49887507 27.2411931,4.4931359 27.2469621,4.4931359 C27.2469621,4.4931359 27.2585001,4.4931359 27.2527311,4.49887507 C27.2469621,4.49887507 27.2527311,4.50461424 27.2527311,4.50461424 L27.2527311,4.50461424 C27.2527311,4.50461424 27.2527311,4.50461424 27.2527311,4.50461424 C27.2527311,4.50461424 27.2411931,4.50461424 27.2411931,4.50461424 L27.2354241,4.51035341 C27.2354241,4.51035341 27.2296551,4.51035341 27.2296551,4.51035341 C27.2296551,4.51035341 27.2296551,4.51035341 27.2296551,4.51035341 C27.2296551,4.51035341 27.2296551,4.51035341 27.2296551,4.51035341 C27.2238861,4.51035341 27.2181171,4.51609258 27.2123481,4.52183175 C27.2123481,4.52183175 27.2065791,4.52757092 27.2008101,4.52757092 C27.2008101,4.52757092 27.2008101,4.52757092 27.1950411,4.52757092 C27.1892721,4.52757092 27.1835031,4.53331009 27.1777341,4.53331009 L27.1777341,4.53331009 C27.1661961,4.53904926 27.1604272,4.53904926 27.1488892,4.54478843 C27.1431202,4.55052761 27.1373512,4.55052761 27.1315822,4.55052761 C27.1258132,4.55052761 27.1200442,4.55052761 27.1200442,4.55052761 C27.1200442,4.55052761 27.1142752,4.55052761 27.1142752,4.55052761 C27.1142752,4.55052761 27.1142752,4.55052761 27.1142752,4.55052761 C27.1142752,4.55052761 27.1142752,4.55052761 27.1142752,4.55052761 C27.1085062,4.55052761 27.1027372,4.55052761 27.1027372,4.55052761 C27.1085062,4.54478843 27.1200442,4.54478843 27.1258132,4.53904926 C27.1258132,4.53904926 27.1315822,4.53331009 27.1373512,4.53331009 C27.1431202,4.52757092 27.1488892,4.52757092 27.1546582,4.52183175 C27.1373512,4.52757092 27.1142752,4.54478843 27.0969682,4.55052761 C27.0450473,4.56774512 26.9931263,4.55052761 26.9412054,4.60791931 C26.9412054,4.60791931 26.9412054,4.60791931 26.9412054,4.60791931 C26.9412054,4.60791931 26.9354364,4.60791931 26.9354364,4.60791931 C26.9354364,4.60791931 26.9354364,4.60791931 26.9354364,4.60791931 L26.9354364,4.60791931 C26.9354364,4.60791931 26.9354364,4.60791931 26.9354364,4.60791931 C26.9354364,4.60791931 26.9354364,4.60791931 26.9354364,4.60791931 C26.9354364,4.60791931 26.9354364,4.60791931 26.9354364,4.60791931 C26.9354364,4.60791931 26.9354364,4.60791931 26.9296674,4.60791931 L26.9238984,4.60791931 C26.9238984,4.60791931 26.9238984,4.60791931 26.9238984,4.60791931 C26.9238984,4.60791931 26.9238984,4.60791931 26.9238984,4.60791931 L26.9238984,4.60791931 C26.9238984,4.60791931 26.9238984,4.60218014 26.9238984,4.59644097 C26.9238984,4.59644097 26.9238984,4.59644097 26.9181294,4.59644097 C26.9181294,4.59644097 26.9181294,4.60218014 26.9181294,4.60218014 L26.8950534,4.60218014 C26.8950534,4.60218014 26.8950534,4.60218014 26.8950534,4.60218014 C26.8892844,4.60218014 26.8835154,4.59644097 26.8719774,4.60218014 C26.8719774,4.60218014 26.8719774,4.60218014 26.8662084,4.60218014 L26.8431324,4.60218014 C26.8373634,4.60218014 26.8315945,4.60218014 26.8315945,4.60218014 C26.8315945,4.60218014 26.8315945,4.60218014 26.8315945,4.60218014 C26.8315945,4.60218014 26.8315945,4.60218014 26.8315945,4.60218014 C26.8258255,4.60218014 26.8200565,4.60218014 26.8142875,4.60791931 C26.8200565,4.60791931 26.8315945,4.60218014 26.8431324,4.59644097 C26.8431324,4.59644097 26.8431324,4.59644097 26.8489014,4.59644097 C26.8546704,4.59644097 26.8604394,4.59644097 26.8662084,4.5907018 C26.8662084,4.5907018 26.8604394,4.5907018 26.8546704,4.5907018 C26.8546704,4.5907018 26.8489014,4.5907018 26.8489014,4.5907018 C26.8431324,4.5907018 26.8315945,4.5907018 26.8315945,4.5907018 C26.8200565,4.5907018 26.8085185,4.5907018 26.8027495,4.5907018 C26.8085185,4.5907018 26.8142875,4.5907018 26.8142875,4.5907018 L26.8142875,4.5907018 C26.8027495,4.5907018 26.7969805,4.5907018 26.7912115,4.5907018 C26.7796735,4.5907018 26.7450595,4.5907018 26.7046766,4.5907018 L26.6758316,4.5907018 C26.6527556,4.5907018 26.6181416,4.5907018 26.5892967,4.5907018 L26.5604517,4.5907018 C26.5604517,4.5907018 26.5604517,4.5907018 26.5604517,4.5907018 C26.5546827,4.5907018 26.5489137,4.5907018 26.5431447,4.5907018 C26.5431447,4.5907018 26.5373757,4.5907018 26.5373757,4.5907018 C26.5373757,4.5907018 26.5373757,4.5907018 26.5373757,4.5907018 L26.5200687,4.5907018 C26.5142997,4.5907018 26.5085307,4.58496263 26.5027618,4.58496263 C26.5027618,4.58496263 26.5027618,4.58496263 26.5027618,4.58496263 C26.5027618,4.58496263 26.5027618,4.58496263 26.5027618,4.58496263 C26.4450718,4.56774512 26.3816129,4.55052761 26.3239229,4.53331009 C26.3239229,4.53331009 26.3181539,4.53331009 26.3181539,4.52757092 C26.3181539,4.52757092 26.3123849,4.52757092 26.3123849,4.52183175 C26.3123849,4.52183175 26.3123849,4.52183175 26.3123849,4.52183175 C26.3123849,4.52183175 26.3066159,4.52183175 26.3066159,4.52183175 C26.3066159,4.52183175 26.3008469,4.52183175 26.3008469,4.52183175 C26.2893089,4.51609258 26.277771,4.51609258 26.266233,4.51035341 C26.3123849,4.53331009 26.3469989,4.55052761 26.3008469,4.53331009 C26.3123849,4.53904926 26.3181539,4.54478843 26.3239229,4.54478843 C26.3181539,4.53904926 26.2950779,4.52757092 26.272002,4.51609258 C26.260464,4.51035341 26.248926,4.50461424 26.243157,4.49887507 C26.243157,4.49887507 26.243157,4.49887507 26.243157,4.49887507 C26.214312,4.48739673 26.191236,4.48165756 26.191236,4.47591839 C26.191236,4.47591839 26.197005,4.47591839 26.208543,4.48165756 C26.179698,4.46444005 26.197005,4.47591839 26.22585,4.48739673 C26.208543,4.48165756 26.197005,4.47017922 26.191236,4.47017922 C26.1335461,4.44148336 26.0816251,4.40704834 26.0297042,4.37261332 C26.0470112,4.38409166 26.0527802,4.39557 26.0527802,4.39557 C26.0527802,4.39557 26.0527802,4.39557 26.0527802,4.39557 C26.0527802,4.39557 26.0412422,4.38983083 26.0354732,4.37835249 C26.0412422,4.38409166 26.0470112,4.38983083 26.0470112,4.39557 C26.0470112,4.39557 26.0412422,4.39557 26.0412422,4.39557 C26.0239352,4.38983083 25.9777832,4.34965663 25.9547073,4.33243912 C25.9489383,4.32669995 25.9489383,4.32096078 25.9489383,4.32096078 C25.9489383,4.32096078 25.9489383,4.32096078 25.9489383,4.32096078 C25.9489383,4.32096078 25.9489383,4.32096078 25.9547073,4.32096078 C25.9547073,4.32096078 25.9547073,4.32096078 25.9604762,4.32096078 C25.9662452,4.32096078 25.9720142,4.32669995 25.9777832,4.32669995 C25.9720142,4.32669995 25.9662452,4.32096078 25.9662452,4.32096078 C25.9604762,4.32096078 25.9604762,4.31522161 25.9604762,4.31522161 C25.9604762,4.31522161 25.9547073,4.31522161 25.9547073,4.31522161 C25.9547073,4.31522161 25.9547073,4.31522161 25.9547073,4.31522161 C25.9547073,4.31522161 25.9547073,4.31522161 25.9604762,4.31522161 C25.9662452,4.31522161 25.9662452,4.32096078 25.9720142,4.32096078 C25.9777832,4.32669995 25.9835522,4.32669995 25.9893212,4.33243912 C25.9893212,4.33243912 25.9893212,4.33243912 25.9893212,4.32669995 C25.9893212,4.32669995 25.9893212,4.32669995 25.9893212,4.32669995 C25.9893212,4.32669995 25.9835522,4.32096078 25.9835522,4.32096078 C25.9777832,4.31522161 25.9662452,4.30948244 25.9662452,4.30374327 C25.9604762,4.2980041 25.9547073,4.2980041 25.9547073,4.29226493 C25.9431693,4.28078659 25.9143243,4.25209073 25.8797103,4.22339488 C25.8739413,4.21765571 25.8739413,4.21765571 25.8681723,4.21191654 C25.8566343,4.2004382 25.8508653,4.19469903 25.8393274,4.18322069 C25.8393274,4.18322069 25.8393274,4.18322069 25.8393274,4.18322069 C25.8393274,4.18322069 25.8335584,4.18322069 25.8335584,4.18322069 C25.8335584,4.18322069 25.8277894,4.18322069 25.8277894,4.18322069 C25.8277894,4.18322069 25.8277894,4.18322069 25.8277894,4.18322069 C25.8277894,4.18322069 25.8277894,4.18322069 25.8335584,4.18322069 C25.8335584,4.18322069 25.8335584,4.18322069 25.8393274,4.18322069 C25.8393274,4.18322069 25.8393274,4.18322069 25.8393274,4.18322069 C25.8393274,4.18322069 25.8450964,4.18322069 25.8450964,4.18322069 L25.8450964,4.18322069 C25.8450964,4.18322069 25.8450964,4.18322069 25.8450964,4.18322069 C25.8450964,4.18322069 25.8335584,4.18322069 25.8335584,4.18322069 C25.8335584,4.18322069 25.8277894,4.18895986 25.8277894,4.18322069 C25.8277894,4.18322069 25.8162514,4.18895986 25.8162514,4.18895986 C25.8162514,4.18895986 25.8162514,4.18895986 25.8162514,4.18895986 L25.8162514,4.18895986 C25.8162514,4.18895986 25.8162514,4.18895986 25.8162514,4.18895986 C25.8162514,4.18895986 25.8104824,4.18895986 25.8104824,4.18895986 L25.8104824,4.18895986 C25.8104824,4.18895986 25.7931754,4.16600318 25.7931754,4.16026401 C25.7931754,4.16026401 25.7931754,4.16026401 25.7931754,4.16026401 C25.7931754,4.16026401 25.7931754,4.16026401 25.7931754,4.15452483 L25.7931754,4.15452483 L25.7931754,4.15452483 C25.7931754,4.15452483 25.7931754,4.13156815 25.7931754,4.13156815 C25.7931754,4.13156815 25.7931754,4.13156815 25.7931754,4.13156815 C25.7931754,4.13156815 25.7989444,4.14304649 25.7989444,4.14304649 C25.7989444,4.14304649 25.7989444,4.14878566 25.7989444,4.14878566 C25.7989444,4.14878566 25.7989444,4.14878566 25.7989444,4.14878566 C25.7989444,4.14878566 25.8047134,4.15452483 25.8047134,4.15452483 C25.8047134,4.15452483 25.7989444,4.14878566 25.7989444,4.14304649 C25.7989444,4.14304649 25.7989444,4.14304649 25.7989444,4.14304649 C25.7989444,4.14304649 25.7989444,4.14304649 25.7989444,4.14304649 C25.7989444,4.14304649 25.7989444,4.14304649 25.7989444,4.14304649 C25.7989444,4.13730732 25.7931754,4.13156815 25.7874064,4.12582898 C25.7874064,4.12582898 25.7816374,4.12582898 25.7816374,4.12582898 C25.7816374,4.12582898 25.7758684,4.12582898 25.7758684,4.12582898 C25.7585614,4.1028723 25.7354855,4.08565479 25.7354855,4.07991562 L25.7354855,4.07991562 C25.7354855,4.07991562 25.7354855,4.07991562 25.7354855,4.07991562 C25.7412544,4.07991562 25.7585614,4.08565479 25.7700994,4.09713313 C25.7700994,4.09713313 25.7700994,4.09139396 25.7643304,4.09139396 C25.7643304,4.09139396 25.7643304,4.09139396 25.7643304,4.09139396 C25.7643304,4.09139396 25.7643304,4.09139396 25.7643304,4.09139396 C25.7643304,4.09139396 25.7643304,4.08565479 25.7643304,4.08565479 C25.7643304,4.07991562 25.7585614,4.07417645 25.7585614,4.06843728 C25.7585614,4.06843728 25.7585614,4.06843728 25.7585614,4.06269811 C25.7470234,4.04548059 25.7354855,4.02826308 25.7297165,4.01104557 C25.7239475,4.0053064 25.7239475,3.99382806 25.7181785,3.98808889 C25.7181785,3.98808889 25.7124095,3.98234972 25.7124095,3.97661055 C25.7066405,3.97087138 25.7066405,3.96513221 25.7008715,3.95939303 C25.7008715,3.95365386 25.6951025,3.94791469 25.6951025,3.94217552 C25.6835645,3.92495801 25.6720265,3.90200133 25.6662575,3.88478382 C25.6662575,3.88478382 25.6662575,3.87904465 25.6604885,3.87904465 C25.6547195,3.86756631 25.6489505,3.86182713 25.6489505,3.85608796 C25.6489505,3.85608796 25.6489505,3.85608796 25.6489505,3.85608796 C25.6489505,3.85608796 25.6489505,3.85608796 25.6489505,3.86182713 C25.6489505,3.86182713 25.6489505,3.86182713 25.6489505,3.86182713 C25.6489505,3.86182713 25.6489505,3.86182713 25.6489505,3.86182713 C25.6489505,3.86182713 25.6489505,3.86182713 25.6489505,3.86182713 C25.6662575,3.89626216 25.6893335,3.94217552 25.6835645,3.94217552 C25.6835645,3.94217552 25.6835645,3.94217552 25.6777955,3.94217552 C25.6720265,3.94217552 25.6547195,3.93069718 25.6489505,3.92495801 C25.6431815,3.91921884 25.6777955,3.9077405 25.6201056,3.89052299 L25.6201056,3.89052299 C25.6201056,3.87904465 25.6258746,3.86756631 25.6201056,3.85608796 C25.6201056,3.85608796 25.6258746,3.85034879 25.6258746,3.85034879 C25.6258746,3.85034879 25.6258746,3.84460962 25.6258746,3.84460962 C25.6258746,3.84460962 25.6258746,3.84460962 25.6258746,3.84460962 C25.6258746,3.83887045 25.6201056,3.83887045 25.6201056,3.83313128 L25.6201056,3.83313128 C25.6201056,3.83313128 25.6201056,3.83313128 25.6201056,3.83313128 C25.6201056,3.83313128 25.6201056,3.83313128 25.6201056,3.83313128 L25.6201056,3.83313128 C25.6201056,3.83313128 25.6201056,3.83313128 25.6201056,3.83313128 C25.6201056,3.83313128 25.6201056,3.83313128 25.6201056,3.83313128 L25.6201056,3.83313128 C25.6201056,3.83313128 25.6201056,3.83313128 25.6201056,3.83313128 C25.6201056,3.83313128 25.6201056,3.83313128 25.6201056,3.83313128 L25.6201056,3.82739211 C25.6201056,3.82739211 25.6201056,3.82739211 25.6201056,3.82739211 L25.6201056,3.82165294 C25.6201056,3.82165294 25.6201056,3.82165294 25.6201056,3.81591377 L25.6201056,3.80443543 C25.6201056,3.78721792 25.6201056,3.76426123 25.6143366,3.74704372 C25.6143366,3.74704372 25.6201056,3.74130455 25.6201056,3.74130455 L25.6201056,3.74130455 C25.6201056,3.72408704 25.6201056,3.7126087 25.6143366,3.70113036 C25.6143366,3.70113036 25.6201056,3.70113036 25.6201056,3.69539119 L25.6201056,3.69539119 C25.5624156,3.68391285 25.6027986,3.67243451 25.6027986,3.66669533 C25.6027986,3.66669533 25.5970296,3.66669533 25.5970296,3.66669533 C25.5970296,3.66669533 25.5912606,3.66095616 25.5912606,3.65521699 C25.5912606,3.64947782 25.5854916,3.63799948 25.5797226,3.62652114 C25.5797226,3.62652114 25.5739536,3.62652114 25.5739536,3.62078197 C25.5739536,3.62078197 25.5739536,3.62078197 25.5739536,3.62078197 C25.5739536,3.62078197 25.5681846,3.62078197 25.5681846,3.6150428 C25.5681846,3.6150428 25.5624156,3.6150428 25.5624156,3.6150428 L25.5624156,3.6150428 C25.5624156,3.6150428 25.5624156,3.6150428 25.5624156,3.6150428 C25.5624156,3.6150428 25.5624156,3.6150428 25.5624156,3.6150428 C25.5624156,3.6150428 25.5624156,3.60930363 25.5624156,3.60930363 C25.5624156,3.60930363 25.5624156,3.60930363 25.5624156,3.60930363 C25.5624156,3.60930363 25.5624156,3.60930363 25.5624156,3.60930363 C25.5624156,3.60930363 25.5624156,3.60356446 25.5624156,3.60356446 C25.5624156,3.6150428 25.5681846,3.62078197 25.5681846,3.63226031 C25.5681846,3.63226031 25.5681846,3.63226031 25.5681846,3.63226031 L25.5681846,3.63799948 C25.5681846,3.63799948 25.5681846,3.63799948 25.5681846,3.63799948 L25.5681846,3.70113036 L25.5681846,3.70113036 L25.5681846,3.68965202 C25.5681846,3.68965202 25.5624156,3.66669533 25.5566466,3.65521699 C25.5566466,3.64947782 25.5566466,3.63799948 25.5566466,3.63226031 C25.5566466,3.62652114 25.5566466,3.6150428 25.5508776,3.60930363 C25.5508776,3.59782529 25.5508776,3.58634695 25.5451086,3.58060778 C25.5451086,3.57486861 25.5451086,3.56912943 25.5451086,3.55765109 C25.4874187,3.58634695 25.4874187,3.58060778 25.4874187,3.57486861 Z M32.3755984,22.6863067 C32.3582914,22.697785 32.3409844,22.7092633 32.3236774,22.7207417 C32.3063704,22.73222 32.2890635,22.7379592 32.2659875,22.7494375 C32.1967595,22.7781334 32.1217626,22.7896117 32.0352277,22.7896117 L21.3279735,22.7896117 C21.0164478,22.7896117 20.751074,22.5256099 20.751074,22.2156947 C20.762612,20.8095979 21.2587456,19.4781103 22.1587087,18.3991462 C22.8048361,17.6243582 23.6528784,17.0504411 24.5874555,16.7003517 C24.5413035,16.6659167 24.4951516,16.6314817 24.4547686,16.5913075 C24.4432306,16.5798292 24.4259237,16.5683508 24.4143857,16.5626116 C24.4143857,16.5626116 24.4086167,16.5626116 24.4086167,16.5568725 C24.4086167,16.5568725 24.4143857,16.5568725 24.4086167,16.5568725 C24.4028477,16.5511333 24.3797717,16.5453941 24.3682337,16.539655 C24.3682337,16.539655 24.3509267,16.539655 24.3509267,16.539655 C24.3509267,16.539655 24.3509267,16.539655 24.3509267,16.539655 C24.3509267,16.539655 24.3624647,16.539655 24.3624647,16.539655 L24.3682337,16.539655 C24.3624647,16.5339158 24.3566957,16.5281766 24.3509267,16.5224374 C24.3509267,16.5224374 24.3509267,16.5224374 24.3509267,16.5224374 C24.3509267,16.5224374 24.3509267,16.5224374 24.3509267,16.5224374 C24.3451577,16.5166983 24.3451577,16.5109591 24.3451577,16.5052199 L24.3451577,16.5052199 C24.3451577,16.5052199 24.3393887,16.4994808 24.3336197,16.4994808 C24.3278507,16.4937416 24.3163128,16.4765241 24.3105438,16.4765241 L24.3105438,16.4765241 C24.2470848,16.4191324 24.1836259,16.3617407 24.1259359,16.2986098 C24.097091,16.2699139 24.068246,16.2354789 24.039401,16.2067831 C24.010556,16.172348 23.9817111,16.1436522 23.9528661,16.1092172 C23.8951761,16.0460863 23.8432552,15.9772162 23.7913342,15.902607 C23.7740272,15.8739112 23.7509513,15.8509545 23.7336443,15.8222586 C23.7278753,15.8107803 23.7221063,15.8050411 23.7163373,15.799302 C23.6990303,15.7763453 23.6874923,15.7533886 23.6701853,15.7304319 C23.6586474,15.7132144 23.6528784,15.7017361 23.6413404,15.6845185 C23.6124954,15.632866 23.5836504,15.5869526 23.5548054,15.5353001 C23.5490365,15.5180826 23.5374985,15.5008651 23.5259605,15.4836476 C23.5201915,15.4664301 23.5086535,15.4549517 23.5028845,15.4377342 C23.4913465,15.4205167 23.4855775,15.39756 23.4740395,15.3803425 C23.4625015,15.363125 23.4567325,15.3401683 23.4451946,15.3229508 C23.4451946,15.3229508 23.4451946,15.3229508 23.4451946,15.3172116 C23.4394256,15.3114725 23.4394256,15.2999941 23.4336566,15.2942549 C23.4336566,15.2885158 23.4278876,15.2827766 23.4278876,15.2770374 C23.4278876,15.2712983 23.4221186,15.2655591 23.4221186,15.2598199 C23.4048116,15.2253849 23.3932736,15.1909499 23.3759666,15.1565148 C23.3644286,15.1220798 23.3528906,15.093384 23.3413526,15.0589489 C23.3413526,15.0532098 23.3355837,15.0474706 23.3355837,15.0417314 C23.3240457,15.0072964 23.3125077,14.9671222 23.3009697,14.9326872 C23.3009697,14.9326872 23.3009697,14.926948 23.3009697,14.926948 C23.2894317,14.892513 23.2836627,14.858078 23.2721247,14.823643 C23.2663557,14.8064254 23.2605867,14.7892079 23.2548177,14.7662512 C23.2548177,14.7662512 23.2548177,14.7605121 23.2548177,14.7605121 C23.2548177,14.7605121 23.2548177,14.7547729 23.2548177,14.7547729 C23.2548177,14.7547729 23.2548177,14.7490337 23.2548177,14.7490337 C23.2490487,14.7318162 23.2432797,14.7088595 23.2432797,14.691642 C23.2375107,14.6629462 23.2317417,14.6399895 23.2259728,14.6112936 C23.2202038,14.5825978 23.2144348,14.5596411 23.2086658,14.5309453 C23.2086658,14.5309453 23.2086658,14.5252061 23.2086658,14.5252061 C23.2028968,14.5079886 23.2028968,14.4965102 23.2028968,14.4792927 C23.1971278,14.456336 23.1913588,14.4391185 23.1913588,14.4161618 L23.1913588,14.4161618 C23.1913588,14.387466 23.1855898,14.3587701 23.1798208,14.3300743 C23.1740518,14.3013784 23.1740518,14.2726826 23.1682828,14.2439867 C23.1682828,14.2439867 23.1682828,14.2439867 23.1682828,14.2382476 C23.1682828,14.2382476 23.1682828,14.2382476 23.1682828,14.2325084 L23.1682828,14.2325084 C23.1740518,14.2267692 23.1798208,14.2152909 23.1798208,14.2095517 C23.1798208,14.186595 23.1855898,14.1636383 23.1855898,14.1349425 C23.1855898,14.1349425 23.1855898,14.1349425 23.1855898,14.1349425 C23.1855898,14.1292033 23.1740518,14.1234641 23.1740518,14.117725 C23.1740518,14.0947683 23.1509758,14.0660724 23.1509758,14.0431158 C23.1509758,14.0373766 23.1913588,14.0316374 23.1336688,14.0258982 C23.1336688,14.0258982 23.1336688,14.0258982 23.1336688,14.0258982 C23.1336688,14.0258982 23.1452068,14.0258982 23.1452068,14.0201591 C23.1394378,14.0144199 23.1452068,14.0029416 23.1452068,13.9914632 C23.1452068,13.9627674 23.1336688,13.9283323 23.1336688,13.8996365 L23.1336688,13.8996365 C23.1336688,13.8709406 23.1452068,13.8422448 23.1452068,13.8135489 C23.1452068,13.7905922 23.1509758,13.7676356 23.1509758,13.7446789 C23.1509758,13.7217222 23.1567448,13.7045047 23.1567448,13.681548 C23.1567448,13.6758088 23.1567448,13.6700697 23.1625138,13.6585913 C23.1625138,13.6356346 23.1682828,13.612678 23.1682828,13.5954604 C23.1682828,13.5667646 23.1740518,13.5438079 23.1740518,13.5151121 C23.1798208,13.4634595 23.1855898,13.4175462 23.1913588,13.3658936 C23.1971278,13.3429369 23.1971278,13.3142411 23.2028968,13.2912844 C23.2028968,13.2855452 23.2028968,13.2798061 23.2028968,13.2798061 C23.2028968,13.2625886 23.2086658,13.245371 23.2144348,13.2281535 C23.2144348,13.2224144 23.2144348,13.2166752 23.2144348,13.2166752 C23.2202038,13.1937185 23.2259728,13.1650227 23.2317417,13.142066 C23.2375107,13.1191093 23.2432797,13.0904134 23.2490487,13.0674568 C23.2548177,13.0445001 23.2605867,13.0158042 23.2663557,12.9928475 C23.2778937,12.941195 23.2952007,12.8952816 23.3067387,12.8436291 C23.3182767,12.7977157 23.3298147,12.7575415 23.3471216,12.7173673 C23.3471216,12.7116282 23.3528906,12.705889 23.3528906,12.7001498 L23.3528906,12.7001498 C23.3528906,12.6771932 23.3701976,12.6542365 23.3817356,12.6255406 C23.3932736,12.6025839 23.3990426,12.5796273 23.4105806,12.5509314 C23.4278876,12.505018 23.4509635,12.4533655 23.4740395,12.4074521 C23.4855775,12.3844955 23.4971155,12.3615388 23.5086535,12.3385821 C23.5086535,12.3385821 23.5086535,12.3328429 23.5144225,12.3328429 C23.5259605,12.3098862 23.5317295,12.2926687 23.5432675,12.269712 C23.5548054,12.2467554 23.5663434,12.2237987 23.5778814,12.200842 C23.6874923,11.9942319 23.8201792,11.7991001 23.9701731,11.6097074 C24.1432429,11.3973581 24.3451577,11.2137047 24.5643795,11.0530079 C24.5643795,11.0530079 24.5643795,11.0530079 24.5643795,11.0530079 C24.6105315,11.0185729 24.6624524,10.9841378 24.7086044,10.955442 C24.7143734,10.955442 24.7143734,10.9497028 24.7201424,10.9497028 C24.7662943,10.921007 24.8182153,10.8865719 24.8643673,10.8636153 C24.8643673,10.8636153 24.8643673,10.8636153 24.8643673,10.8636153 C24.8932122,10.8463977 24.9162882,10.8349194 24.9451332,10.8177019 C25.4239597,10.5594392 25.9604762,10.4044816 26.5027618,10.3757858 C26.6412176,10.3700466 26.7796735,10.3872641 26.9181294,10.3872641 L26.9238984,10.3872641 C26.9585123,10.3872641 26.9815883,10.3815249 27.0219713,10.3815249 C27.0277403,10.3815249 27.0335093,10.3815249 27.0335093,10.3815249 C27.0335093,10.3815249 27.0508163,10.3815249 27.0508163,10.3815249 L27.0508163,10.3815249 L27.0392783,10.3815249 C27.0623542,10.3815249 27.0911992,10.3872641 27.1142752,10.3872641 C27.1546582,10.3930033 27.1950411,10.3987424 27.2354241,10.4044816 C27.2585001,10.4102208 27.275807,10.4102208 27.298883,10.4159599 C27.310421,10.4159599 27.321959,10.4216991 27.327728,10.4216991 C27.345035,10.4274383 27.368111,10.4274383 27.3854179,10.4331775 C27.3911869,10.4331775 27.3969559,10.4331775 27.4027249,10.4389166 C27.4027249,10.4389166 27.4027249,10.4389166 27.4027249,10.4389166 C27.4027249,10.4389166 27.4027249,10.4389166 27.4027249,10.4389166 C27.4027249,10.4389166 27.4084939,10.4389166 27.4084939,10.4389166 C27.4142629,10.4389166 27.4258009,10.4446558 27.4315699,10.4446558 C27.4431079,10.4446558 27.4488769,10.450395 27.4604149,10.450395 C27.4661839,10.450395 27.4777219,10.4561341 27.4892599,10.4561341 C27.4950288,10.4561341 27.5007978,10.4561341 27.5065668,10.4618733 C27.5065668,10.4618733 27.5065668,10.4618733 27.5065668,10.4618733 C27.5065668,10.4618733 27.5065668,10.450395 27.5123358,10.450395 C27.5123358,10.450395 27.5123358,10.4389166 27.5123358,10.4389166 L27.5123358,10.4389166 C27.5123358,10.4389166 27.5123358,10.450395 27.5181048,10.450395 C27.5238738,10.450395 27.5238738,10.4561341 27.5296428,10.4618733 C27.5354118,10.4618733 27.5354118,10.4676125 27.5411808,10.4676125 C27.5411808,10.4676125 27.5411808,10.4676125 27.5411808,10.4676125 C27.5700258,10.4733517 27.5988707,10.48483 27.6277157,10.4905692 C27.6507917,10.4963083 27.6680987,10.5020475 27.6911747,10.5077867 C27.7084816,10.5135258 27.7315576,10.519265 27.7488646,10.5250042 C27.7892476,10.5364825 27.8238615,10.5537 27.8642445,10.5651784 C27.9046275,10.5823959 27.9392414,10.5938742 27.9738554,10.6110917 C28.0084694,10.6225701 28.0430833,10.6397876 28.0719283,10.6512659 C28.1065423,10.6684835 28.1411563,10.685701 28.1757702,10.6971793 C28.2103842,10.7143968 28.2392292,10.7316143 28.2680741,10.7430927 C28.2738431,10.7488318 28.2853811,10.7488318 28.2911501,10.754571 C28.2969191,10.754571 28.3026881,10.7603102 28.3084571,10.7660494 C28.3603781,10.7947452 28.412299,10.8234411 28.46422,10.8578761 C28.4815269,10.8693544 28.4988339,10.8750936 28.5103719,10.8865719 C28.5449859,10.9037894 28.5738309,10.9267461 28.6084448,10.9497028 C28.6661348,10.989877 28.7238247,11.0300512 28.7815147,11.0759646 C28.8045906,11.0931821 28.8276666,11.1103996 28.8507426,11.1276171 C28.8622806,11.1390954 28.8738186,11.1448346 28.8853566,11.156313 C28.9084326,11.1735305 28.9257395,11.190748 28.9488155,11.2079655 C28.9776605,11.2309222 29.0065055,11.259618 29.0353504,11.2825747 C29.0584264,11.3055314 29.0815024,11.3284881 29.1103474,11.3514448 C29.1161164,11.3571839 29.1218854,11.3629231 29.1276544,11.3686623 C29.1334233,11.3744014 29.1391923,11.3801406 29.1449613,11.3858798 C29.1911133,11.426054 29.2314963,11.4719673 29.2718792,11.5178807 C29.2891862,11.5350982 29.3064932,11.5523157 29.3180312,11.5695332 C29.3353382,11.5867507 29.3526451,11.6097074 29.3641831,11.6269249 C29.3699521,11.6326641 29.3814901,11.6441424 29.3872591,11.6498816 C29.4276421,11.7015342 29.473794,11.7531867 29.508408,11.8048392 C29.514177,11.8105784 29.519946,11.8163176 29.525715,11.8277959 C29.543022,11.8564918 29.566098,11.8794484 29.5834049,11.9081443 C29.5834049,11.9081443 29.5834049,11.9081443 29.5834049,11.9081443 C29.6007119,11.9368401 29.6180189,11.9597968 29.6353259,11.9884927 C29.6468639,12.0057102 29.6584019,12.0229277 29.6699399,12.0458844 C29.6814778,12.0573627 29.6872468,12.0745802 29.6987848,12.0860586 C29.7103228,12.1032761 29.7218608,12.1204936 29.7276298,12.1377111 C29.7391678,12.1549286 29.7507058,12.1778853 29.7622438,12.1951028 C29.7737818,12.2180595 29.7910887,12.2410162 29.8026267,12.2639729 C29.8026267,12.2639729 29.8026267,12.2639729 29.8026267,12.2639729 C29.8026267,12.269712 29.8083957,12.2754512 29.8083957,12.2754512 C29.8141647,12.2869296 29.8199337,12.2984079 29.8257027,12.3098862 C29.8545477,12.3615388 29.8776237,12.4131913 29.9006996,12.4648438 C29.9064686,12.4763222 29.9122376,12.4878005 29.9180066,12.4992789 C29.9180066,12.505018 29.9237756,12.5107572 29.9237756,12.5164964 C29.9295446,12.5222355 29.9295446,12.5337139 29.9353136,12.5394531 C29.9410826,12.5566706 29.9526206,12.5738881 29.9526206,12.5853664 C29.9526206,12.5911056 29.9583896,12.5968448 29.9583896,12.6025839 C29.9641586,12.6140623 29.9641586,12.6198014 29.9699276,12.6312798 C29.9699276,12.637019 29.9756966,12.6427581 29.9756966,12.6484973 C29.9756966,12.6542365 29.9756966,12.6599756 29.9814656,12.6657148 C29.9814656,12.6657148 29.9814656,12.6657148 29.9814656,12.671454 C29.9872346,12.6829323 29.9872346,12.6944107 29.9930036,12.705889 C29.9930036,12.7116282 29.9987726,12.7288457 29.9987726,12.7288457 L29.9987726,12.7288457 C29.9987726,12.7288457 30.0045415,12.740324 30.0045415,12.7460632 C30.0160795,12.7747591 30.0218485,12.8034549 30.0333865,12.8321508 C30.0333865,12.8378899 30.0333865,12.8378899 30.0391555,12.8436291 C30.0391555,12.8493683 30.0449245,12.8551074 30.0449245,12.8608466 C30.0506935,12.8838033 30.0622315,12.90676 30.0680005,12.9354558 C30.0910765,13.0215434 30.1141524,13.1133701 30.1314594,13.1994577 C30.1372284,13.2281535 30.1429974,13.2568494 30.1487664,13.2855452 C30.1545354,13.3314586 30.1660734,13.3716328 30.1718424,13.4175462 C30.1776114,13.4405028 30.1776114,13.4634595 30.1776114,13.4864162 C30.1833804,13.5323296 30.1891494,13.5782429 30.1891494,13.6241563 C30.1949184,13.6930263 30.2006874,13.7618964 30.2006874,13.8307664 C30.2006874,13.8422448 30.2122254,13.8594623 30.2122254,13.8709406 L30.2122254,13.8881581 C30.2122254,13.8996365 30.2006874,13.916854 30.2006874,13.9283323 C30.2006874,14.0316374 30.1891494,14.1349425 30.1776114,14.2325084 C30.1776114,14.2554651 30.1718424,14.2841609 30.1660734,14.3071176 C30.1545354,14.3817268 30.1429974,14.456336 30.1256904,14.5309453 C30.1256904,14.5424236 30.1199214,14.5539019 30.1199214,14.5653803 C30.1083835,14.6055545 30.0968455,14.6399895 30.0910765,14.6801637 C30.0910765,14.6801637 30.0910765,14.6801637 30.0910765,14.6801637 C30.0910765,14.6859029 30.0910765,14.6859029 30.0910765,14.691642 C30.0910765,14.691642 30.0910765,14.691642 30.0910765,14.691642 L30.0853075,14.691642 L30.0853075,14.691642 C30.0853075,14.691642 30.0795385,14.7088595 30.0737695,14.7260771 C30.0737695,14.7260771 30.0737695,14.7318162 30.0737695,14.7318162 C30.0737695,14.7318162 30.0737695,14.7375554 30.0737695,14.7375554 C30.0737695,14.7375554 30.0737695,14.7432946 30.0737695,14.7432946 C30.0737695,14.7490337 30.0737695,14.7490337 30.0737695,14.7490337 C30.0737695,14.7547729 30.0680005,14.7662512 30.0680005,14.7719904 C30.0622315,14.7949471 30.0564625,14.8179038 30.0449245,14.8465996 C30.0391555,14.858078 30.0391555,14.8752955 30.0333865,14.8867738 C30.0218485,14.9212089 30.0103105,14.9556439 29.9987726,14.9843397 C29.9872346,15.0130356 29.9814656,15.0359923 29.9699276,15.0646881 C29.9583896,15.093384 29.9468516,15.1220798 29.9353136,15.1507757 C29.9237756,15.1794715 29.9122376,15.2024282 29.9006996,15.2311241 C29.9006996,15.2311241 29.9006996,15.2368632 29.9006996,15.2368632 C29.9006996,15.2368632 29.9006996,15.2368632 29.9006996,15.2426024 C29.8891617,15.2655591 29.8833927,15.2827766 29.8718547,15.3057333 C29.8660857,15.32869 29.8545477,15.3459075 29.8430097,15.3688642 C29.8430097,15.3746033 29.8372407,15.3803425 29.8372407,15.3860817 C29.8257027,15.4147775 29.8141647,15.4377342 29.7968577,15.4664301 C29.7968577,15.4721692 29.7910887,15.4721692 29.7910887,15.4779084 C29.7795508,15.4951259 29.7737818,15.5123434 29.7622438,15.5295609 C29.7507058,15.5525176 29.7391678,15.5754743 29.7218608,15.598431 C29.7103228,15.6213877 29.6930158,15.6443443 29.6814778,15.667301 C29.6699399,15.6902577 29.6526329,15.7132144 29.6410949,15.7361711 C29.6295569,15.7591278 29.6122499,15.7820844 29.5949429,15.8050411 C29.5776359,15.8279978 29.560329,15.8509545 29.543022,15.8796503 C29.531484,15.902607 29.514177,15.9198245 29.49687,15.9427812 C29.479563,15.9657379 29.468025,15.9886946 29.4507181,16.0059121 C29.4334111,16.0231296 29.4218731,16.0460863 29.4045661,16.0633038 C29.4045661,16.069043 29.3987971,16.069043 29.3987971,16.0747821 C29.3814901,16.0919997 29.3699521,16.1149563 29.3526451,16.1321738 C29.3353382,16.1551305 29.3180312,16.172348 29.3007242,16.1953047 C29.2661102,16.2354789 29.2314963,16.2699139 29.1968823,16.3100881 C29.1968823,16.3100881 29.1911133,16.3158273 29.1911133,16.3158273 C29.1680373,16.338784 29.1449613,16.3617407 29.1218854,16.3904365 C29.0872714,16.4248715 29.0526574,16.4535674 29.0180435,16.4880024 C29.0007365,16.5052199 28.9776605,16.5224374 28.9603535,16.5453941 C28.9488155,16.5568725 28.9372775,16.5683508 28.9257395,16.57409 C28.9084326,16.5913075 28.8911256,16.6027858 28.8738186,16.6200033 C28.8622806,16.6314817 28.8507426,16.6372209 28.8392046,16.6486992 C28.8161286,16.6659167 28.7988217,16.6831342 28.7757457,16.7003517 C29.560329,17.0045278 30.2526083,17.4636614 30.8295078,18.0318393 C30.8641218,18.0662743 30.8987357,18.1064485 30.9333497,18.1408836 C30.9333497,18.1408836 30.9333497,18.1408836 30.9391187,18.1466227 C30.9448877,18.1523619 30.9506567,18.1581011 30.9506567,18.1638402 C30.9852707,18.1982753 31.0141156,18.2327103 31.0487296,18.2728845 C31.0833436,18.3130587 31.1237265,18.3532329 31.1525715,18.3934071 C31.1871855,18.4335813 31.2217994,18.4737554 31.2564134,18.5139296 C31.2910274,18.5541038 31.3256413,18.6000172 31.3544863,18.6401914 C31.3891003,18.6803656 31.4179453,18.726279 31.4525592,18.7664531 C31.4814042,18.8123665 31.5160182,18.8525407 31.5448631,18.8984541 C31.5737081,18.9443674 31.6083221,18.9845416 31.6371671,19.030455 C31.666012,19.0706292 31.689088,19.1165426 31.717933,19.1624559 C31.717933,19.1624559 31.717933,19.1681951 31.717933,19.1681951 C31.717933,19.1681951 31.717933,19.1681951 31.717933,19.1739343 C31.746778,19.2198476 31.7698539,19.2600218 31.7986989,19.3059352 C31.7986989,19.3059352 31.7986989,19.3059352 31.7986989,19.3116744 C32.3006014,20.1782891 32.5832822,21.1769048 32.5890512,22.227173 C32.6294341,22.4395223 32.5255922,22.6002191 32.3755984,22.6863067 Z M25.5316497,3.61912943 C25.5316497,3.61912943 25.5316497,3.62912943 25.5316497,3.62912943 C25.5316497,3.61912943 25.5316497,3.61912943 25.5316497,3.60912943 L25.5316497,3.61912943 Z" id="Shape"></path>
                </g>
            </g>
        </g>
    </g>
</svg>