<?xml version="1.0" encoding="UTF-8"?>
<svg width="15px" height="15px" viewBox="0 0 15 15" version="1.1" xmlns="http://www.w3.org/2000/svg" xmlns:xlink="http://www.w3.org/1999/xlink">
    <title>search-24px</title>
    <g id="Proposition" stroke="none" stroke-width="1" fill="none" fill-rule="evenodd">
        <g id="Accueil-forum-v1" transform="translate(-833.000000, -280.000000)" fill="#FFFFFF" fill-rule="nonzero">
            <g id="Group-3" transform="translate(0.000000, 62.000000)">
                <g id="Shape" transform="translate(833.000000, 218.000000)">
                    <path d="M10.4166667,9.16666667 L9.75833333,9.16666667 L9.525,8.94166667 C10.3416667,7.99166667 10.8333333,6.75833333 10.8333333,5.41666667 C10.8333333,2.425 8.40833333,-9.05941988e-14 5.41666667,-9.05941988e-14 C2.425,-9.05941988e-14 3.64153152e-13,2.425 3.64153152e-13,5.41666667 C3.64153152e-13,8.40833333 2.425,10.8333333 5.41666667,10.8333333 C6.75833333,10.8333333 7.99166667,10.3416667 8.94166667,9.525 L9.16666667,9.75833333 L9.16666667,10.4166667 L13.3333333,14.575 L14.575,13.3333333 L10.4166667,9.16666667 Z M5.41666667,9.16666667 C3.34166667,9.16666667 1.66666667,7.49166667 1.66666667,5.41666667 C1.66666667,3.34166667 3.34166667,1.66666667 5.41666667,1.66666667 C7.49166667,1.66666667 9.16666667,3.34166667 9.16666667,5.41666667 C9.16666667,7.49166667 7.49166667,9.16666667 5.41666667,9.16666667 Z"></path>
                </g>
            </g>
        </g>
    </g>
</svg>