<?xml version="1.0" encoding="UTF-8"?>
<svg width="48px" height="34px" viewBox="0 0 48 34" version="1.1" xmlns="http://www.w3.org/2000/svg" xmlns:xlink="http://www.w3.org/1999/xlink">
    <title>icon-collaboration</title>
    <g id="Proposition" stroke="none" stroke-width="1" fill="none" fill-rule="evenodd">
        <g id="Accueil-forum-v1-Copy-5" transform="translate(-815.000000, -1305.000000)" fill="#136C53" fill-rule="nonzero">
            <g id="Group-3" transform="translate(0.611034, 1103.919744)">
                <g id="Group-18" transform="translate(706.388966, 172.080256)">
                    <g id="Path" transform="translate(108.000000, 29.000000)">
                        <path d="M47.8,12.9 L42,1.7 C41.5,0.7 40.3,0.3 39.3,0.8 L37.6,1.7 C36.6,2.2 36.2,3.4 36.7,4.4 L42.5,15.6 C43,16.6 44.2,17 45.2,16.5 L46.9,15.6 C47.9,15.1 48.3,13.9 47.8,12.9 Z"></path>
                        <g transform="translate(0.000000, 1.000000)">
                            <path d="M21.2,27.6 C20.2,26.6 19.2,27 18.6,27.5 C19,27.1 19.3,26.6 19.5,26.5 C19.9,26.1 20.1,25.6 20.1,25.1 C20.1,24.6 19.9,24 19.5,23.6 C18.7,22.8 17.4,22.9 16.7,23.7 L16.1,24.4 C16.5,24 16.8,23.6 17.1,23.3 C17.9,22.5 17.8,21.2 17,20.5 L17,20.5 C16.2,19.7 14.9,19.8 14.2,20.6 L13.3,21.5 C14.1,20.7 14,19.4 13.2,18.7 L13.2,18.7 C12.4,17.9 11.1,18 10.4,18.8 L9,20.3 C8.4,20.9 8.5,21.8 9.1,22.4 L9.8,23.1 C10.4,23.7 11.4,23.6 11.9,23 L12,22.9 C11.4,23.5 11.5,24.5 12.1,25.1 L12.7,25.6 C13.6,26.4 14.4,26.1 15.1,25.4 C14.6,26 14.7,27 15.3,27.5 L15.8,28 C16.6,28.8 17.4,28.5 18.1,27.9 C17.9,28.1 17.8,28.2 17.8,28.2 C17.5,28.6 17.5,29.1 17.8,29.5 L19.4,31 C19.8,31.3 20.3,31.3 20.7,31 L21.3,30.3 C22,29.6 22,28.3 21.2,27.6 L21.2,27.6 Z"></path>
                            <path d="M25,12.9 L21,13.8 C20.7,13.9 20.3,13.9 19.9,13.9 C17.8,13.9 15.9,12.5 15.4,10.4 C15.2,9.5 15.2,8.5 15.6,7.7 L9.8,16.6 C10.4,16.3 11,16.2 11.6,16.2 C13.6,16.2 14.7,17.6 15,17.9 L15,18 C16.2,17.9 17.1,18.2 17.9,18.8 L18,18.8 C18.1,18.9 19.2,19.7 19.4,21.3 C21.3,22 22.3,23.9 22,25.6 C24.2,27.1 24.4,29.9 22.8,31.7 C23.2,32.1 23.3,32.1 23.5,32.2 C24.3,32.6 25.2,32.4 25.8,31.7 C26.5,31 26.5,29.9 26,29.1 C26.8,29.6 27.9,29.5 28.5,28.8 C29.2,28 29.2,26.8 28.4,26 C29.2,26.7 30.4,26.7 31.2,25.9 C31.9,25.1 31.9,23.9 31.1,23.1 C31.9,23.8 33.2,23.8 33.9,23 C34.6,22.2 34.7,21.2 34.1,20.4 C33.8,20 26.8,13.4 25,12.9 Z"></path>
                            <path d="M13.1,2.3 L11.5,1.2 C10.2,0.3 8.3,0.6 7.3,2.1 L0.5,12.7 C-0.4,14.1 3.46944695e-18,15.9 1.4,16.9 L3,17.9 C4.4,18.8 6.3,18.4 7.2,17 L14,6.4 C14.9,5 14.5,3.1 13.1,2.3 Z"></path>
                            <path d="M33.7,5.4 C32.1,6 30.4,6 28.8,5.4 C27.9,5.1 27.3,4.6 26.2,5 C22.7,5.8 23.2,5.7 19.4,6.6 C18,7 17.2,8.4 17.5,9.8 C17.8,11.1 19.2,12 20.7,11.7 L24.9,10.8 C26.8,10.3 33.8,17.2 35.3,18.6 L39.6,15.1 L40.4,14.8 L35.2,4.7 L33.7,5.4 Z"></path>
                        </g>
                    </g>
                </g>
            </g>
        </g>
    </g>
</svg>