<?xml version="1.0" encoding="UTF-8"?>
<svg width="12px" height="12px" viewBox="0 0 12 12" version="1.1" xmlns="http://www.w3.org/2000/svg" xmlns:xlink="http://www.w3.org/1999/xlink">
    <title>noun_message_1459405 copy</title>
    <g id="accueil" stroke="none" stroke-width="1" fill="none" fill-rule="evenodd">
        <g id="Accueil-forum-v1" transform="translate(-680.000000, -615.000000)" fill="#000000" fill-rule="nonzero">
            <g id="Group-14" transform="translate(0.500000, 471.000000)">
                <g id="noun_message_1459405-copy" transform="translate(679.500000, 144.000000)">
                    <path d="M9.66796875,0 L2.33203125,0 C1.04414062,0 0,1.0659375 0,2.38710938 L0,7.05117188 C0,7.11890625 0.0028125,7.18570313 0.008203125,7.25203125 C0.00276461788,7.28495606 0,7.31826968 0,7.35164062 L0,11.7028125 C0,12.0332813 0.1640625,12.0923437 0.36515625,11.8338281 L2.22375,9.4415625 C2.25960938,9.44320313 2.29570312,9.4453125 2.33203125,9.4453125 L9.66796875,9.4453125 C10.9570312,9.4453125 12,8.37210937 12,7.0509375 L12,2.386875 C12,1.0659375 10.9558594,0 9.66796875,0 Z M3.28125,3.9140625 L6.8203125,3.9140625 L6.8203125,4.5 L3.28125,4.5 L3.28125,3.9140625 Z M9.6796875,6.5390625 L3.28125,6.5390625 L3.28125,5.953125 L9.6796875,5.953125 L9.6796875,6.5390625 Z" id="Shape"></path>
                </g>
            </g>
        </g>
    </g>
</svg>