<?xml version="1.0" encoding="UTF-8"?>
<svg width="14px" height="12px" viewBox="0 0 14 12" version="1.1" xmlns="http://www.w3.org/2000/svg" xmlns:xlink="http://www.w3.org/1999/xlink">
    <title>noun_Calendar_2080533 Copy 2</title>
    <g id="accueil" stroke="none" stroke-width="1" fill="none" fill-rule="evenodd">
        <g id="Accueil-forum-v1" transform="translate(-439.000000, -615.000000)" fill="#000000" fill-rule="nonzero">
            <g id="Group-14" transform="translate(0.500000, 471.000000)">
                <g id="Group" transform="translate(438.500000, 144.000000)">
                    <path d="M11.4178571,1.15909091 L10.2815476,1.15909091 L10.2815476,0.75 C10.2815476,0.409090909 9.99404762,0.122727273 9.65178571,0.122727273 L9.2,0.122727273 C8.8577381,0.122727273 8.5702381,0.409090909 8.5702381,0.75 L8.5702381,1.15909091 L4.55892857,1.15909091 L4.55892857,0.75 C4.55892857,0.409090909 4.27142857,0.122727273 3.92916667,0.122727273 L3.47738095,0.122727273 C3.13511905,0.122727273 2.84761905,0.409090909 2.84761905,0.75 L2.84761905,1.15909091 L1.725,1.15909091 C0.807738095,1.15909091 0.068452381,1.89545455 0.068452381,2.80909091 L0.068452381,10.2272727 C0.068452381,11.1409091 0.807738095,11.8772727 1.725,11.8772727 L9.21369048,11.8772727 C9.67916667,11.8772727 10.1172619,11.7 10.4458333,11.3727273 L12.5678571,9.25909091 C12.8964286,8.93181818 13.0744048,8.49545455 13.0744048,8.04545455 L13.0744048,2.82272727 C13.0744048,1.89545455 12.335119,1.15909091 11.4178571,1.15909091 Z M1.725,10.8545455 C1.3827381,10.8545455 1.0952381,10.5681818 1.0952381,10.2272727 L1.0952381,4.48636364 L12.047619,4.48636364 L12.047619,8.04545455 C12.047619,8.1 12.0339286,8.14090909 12.0202381,8.18181818 L10.4184524,8.18181818 C9.8297619,8.18181818 9.35059524,8.65909091 9.35059524,9.24545455 L9.35059524,10.8272727 C9.30952381,10.8409091 9.2547619,10.8545455 9.21369048,10.8545455 L1.725,10.8545455 Z" id="Shape"></path>
                    <ellipse id="Oval" cx="2.94345238" cy="6.34090909" rx="1" ry="1"></ellipse>
                    <ellipse id="Oval" cx="5.35297619" cy="6.34090909" rx="1" ry="1"></ellipse>
                    <ellipse id="Oval" cx="7.7625" cy="6.34090909" rx="1" ry="1"></ellipse>
                    <ellipse id="Oval" cx="10.1720238" cy="6.34090909" rx="1" ry="1"></ellipse>
                    <ellipse id="Oval" cx="2.94345238" cy="8.91818182" rx="1" ry="1"></ellipse>
                    <ellipse id="Oval" cx="5.35297619" cy="8.91818182" rx="1" ry="1"></ellipse>
                    <ellipse id="Oval" cx="7.7625" cy="8.91818182" rx="1" ry="1"></ellipse>
                </g>
            </g>
        </g>
    </g>
</svg>